<mxfile host="app.diagrams.net" modified="2023-05-19T08:48:59.688Z" agent="Mozilla/5.0 (Windows NT 10.0; Win64; x64) AppleWebKit/537.36 (KHTML, like Gecko) Chrome/113.0.0.0 Safari/537.36" etag="xAbAjpAH3tq2Iq8O35zX" version="21.3.2" type="device" pages="3">
  <diagram name="loginEmpleados-MOVIL" id="eofV_U5s421sgVRMSGBF">
    <mxGraphModel dx="1687" dy="936" grid="1" gridSize="10" guides="1" tooltips="1" connect="1" arrows="1" fold="1" page="1" pageScale="1" pageWidth="660" pageHeight="1169" math="0" shadow="0">
      <root>
        <mxCell id="0" />
        <mxCell id="1" parent="0" />
        <mxCell id="LAQwpFCrESd6b8tVQlqd-1" value="" style="rounded=0;whiteSpace=wrap;html=1;" vertex="1" parent="1">
          <mxGeometry width="660" height="90" as="geometry" />
        </mxCell>
        <mxCell id="LAQwpFCrESd6b8tVQlqd-2" value="" style="rounded=0;whiteSpace=wrap;html=1;" vertex="1" parent="1">
          <mxGeometry y="90" width="660" height="870" as="geometry" />
        </mxCell>
        <mxCell id="LAQwpFCrESd6b8tVQlqd-3" value="" style="rounded=0;whiteSpace=wrap;html=1;" vertex="1" parent="1">
          <mxGeometry y="960" width="660" height="209" as="geometry" />
        </mxCell>
        <mxCell id="LAQwpFCrESd6b8tVQlqd-4" value="LOGO" style="rounded=0;whiteSpace=wrap;html=1;" vertex="1" parent="1">
          <mxGeometry x="20" y="15" width="120" height="60" as="geometry" />
        </mxCell>
        <mxCell id="LAQwpFCrESd6b8tVQlqd-5" value="MENU HAMBURGUESA" style="rounded=0;whiteSpace=wrap;html=1;" vertex="1" parent="1">
          <mxGeometry x="510" y="15" width="110" height="60" as="geometry" />
        </mxCell>
        <mxCell id="LAQwpFCrESd6b8tVQlqd-6" value="EMAIL" style="rounded=0;whiteSpace=wrap;html=1;" vertex="1" parent="1">
          <mxGeometry x="210" y="364" width="240" height="60" as="geometry" />
        </mxCell>
        <mxCell id="LAQwpFCrESd6b8tVQlqd-7" value="CONTRASEÑA" style="rounded=0;whiteSpace=wrap;html=1;glass=0;" vertex="1" parent="1">
          <mxGeometry x="210" y="444" width="240" height="60" as="geometry" />
        </mxCell>
        <mxCell id="LAQwpFCrESd6b8tVQlqd-8" value="INICIAR SESIÓN" style="rounded=1;whiteSpace=wrap;html=1;" vertex="1" parent="1">
          <mxGeometry x="235" y="524" width="190" height="60" as="geometry" />
        </mxCell>
        <mxCell id="LAQwpFCrESd6b8tVQlqd-9" value="SECCIÓN 1" style="rounded=0;whiteSpace=wrap;html=1;" vertex="1" parent="1">
          <mxGeometry x="30" y="980" width="120" height="160" as="geometry" />
        </mxCell>
        <mxCell id="LAQwpFCrESd6b8tVQlqd-10" value="SECCIÓN 2" style="rounded=0;whiteSpace=wrap;html=1;" vertex="1" parent="1">
          <mxGeometry x="210" y="980" width="120" height="160" as="geometry" />
        </mxCell>
        <mxCell id="LAQwpFCrESd6b8tVQlqd-11" value="INFO EXTRA" style="rounded=0;whiteSpace=wrap;html=1;" vertex="1" parent="1">
          <mxGeometry x="350" y="1080" width="270" height="60" as="geometry" />
        </mxCell>
        <mxCell id="LAQwpFCrESd6b8tVQlqd-12" value="TÍTULO LOGIN&amp;nbsp;EMPLEADOS" style="rounded=1;whiteSpace=wrap;html=1;" vertex="1" parent="1">
          <mxGeometry x="95" y="210" width="470" height="60" as="geometry" />
        </mxCell>
        <mxCell id="LAQwpFCrESd6b8tVQlqd-13" value="NOMBRE DE EMPRESA" style="rounded=0;whiteSpace=wrap;html=1;" vertex="1" parent="1">
          <mxGeometry x="170" y="15" width="180" height="60" as="geometry" />
        </mxCell>
      </root>
    </mxGraphModel>
  </diagram>
  <diagram id="6cM0BamJv4NCp6AjdA9Y" name="loginEmpleados-TABLET">
    <mxGraphModel dx="2049" dy="1056" grid="1" gridSize="10" guides="1" tooltips="1" connect="1" arrows="1" fold="1" page="1" pageScale="1" pageWidth="660" pageHeight="1169" math="0" shadow="0">
      <root>
        <mxCell id="0" />
        <mxCell id="1" parent="0" />
        <mxCell id="XQWgcxxS1hy90txL3GSs-1" value="" style="rounded=0;whiteSpace=wrap;html=1;" vertex="1" parent="1">
          <mxGeometry width="850" height="90" as="geometry" />
        </mxCell>
        <mxCell id="XQWgcxxS1hy90txL3GSs-2" value="&lt;br&gt;" style="rounded=0;whiteSpace=wrap;html=1;" vertex="1" parent="1">
          <mxGeometry y="90" width="850" height="870" as="geometry" />
        </mxCell>
        <mxCell id="XQWgcxxS1hy90txL3GSs-3" value="" style="rounded=0;whiteSpace=wrap;html=1;" vertex="1" parent="1">
          <mxGeometry y="960" width="850" height="209" as="geometry" />
        </mxCell>
        <mxCell id="XQWgcxxS1hy90txL3GSs-4" value="LOGO" style="rounded=0;whiteSpace=wrap;html=1;" vertex="1" parent="1">
          <mxGeometry x="20" y="15" width="120" height="60" as="geometry" />
        </mxCell>
        <mxCell id="XQWgcxxS1hy90txL3GSs-5" value="MENU HAMBURGUESA" style="rounded=0;whiteSpace=wrap;html=1;" vertex="1" parent="1">
          <mxGeometry x="690" y="15" width="110" height="60" as="geometry" />
        </mxCell>
        <mxCell id="XQWgcxxS1hy90txL3GSs-6" value="SECCIÓN 1" style="rounded=0;whiteSpace=wrap;html=1;" vertex="1" parent="1">
          <mxGeometry x="30" y="980" width="170" height="160" as="geometry" />
        </mxCell>
        <mxCell id="XQWgcxxS1hy90txL3GSs-7" value="SECCIÓN 2" style="rounded=0;whiteSpace=wrap;html=1;" vertex="1" parent="1">
          <mxGeometry x="290" y="980" width="175" height="160" as="geometry" />
        </mxCell>
        <mxCell id="XQWgcxxS1hy90txL3GSs-8" value="INFO EXTRA" style="rounded=0;whiteSpace=wrap;html=1;" vertex="1" parent="1">
          <mxGeometry x="550" y="1080" width="270" height="60" as="geometry" />
        </mxCell>
        <mxCell id="XQWgcxxS1hy90txL3GSs-9" value="NOMBRE DE EMPRESA" style="rounded=0;whiteSpace=wrap;html=1;" vertex="1" parent="1">
          <mxGeometry x="170" y="15" width="180" height="60" as="geometry" />
        </mxCell>
        <mxCell id="XQWgcxxS1hy90txL3GSs-10" value="EMAIL" style="rounded=0;whiteSpace=wrap;html=1;" vertex="1" parent="1">
          <mxGeometry x="305" y="400" width="240" height="60" as="geometry" />
        </mxCell>
        <mxCell id="XQWgcxxS1hy90txL3GSs-11" value="CONTRASEÑA" style="rounded=0;whiteSpace=wrap;html=1;glass=0;" vertex="1" parent="1">
          <mxGeometry x="305" y="490" width="240" height="60" as="geometry" />
        </mxCell>
        <mxCell id="XQWgcxxS1hy90txL3GSs-12" value="INICIAR SESIÓN" style="rounded=1;whiteSpace=wrap;html=1;" vertex="1" parent="1">
          <mxGeometry x="330" y="580" width="190" height="60" as="geometry" />
        </mxCell>
        <mxCell id="XQWgcxxS1hy90txL3GSs-13" value="TÍTULO LOGIN EMPLEADOS" style="rounded=1;whiteSpace=wrap;html=1;" vertex="1" parent="1">
          <mxGeometry x="190" y="250" width="470" height="60" as="geometry" />
        </mxCell>
      </root>
    </mxGraphModel>
  </diagram>
  <diagram id="XBaR88chZ2uJLR0n_-Rv" name="loginEmpleados-ESCRITORIO">
    <mxGraphModel dx="2390" dy="1232" grid="1" gridSize="10" guides="1" tooltips="1" connect="1" arrows="1" fold="1" page="1" pageScale="1" pageWidth="660" pageHeight="1169" math="0" shadow="0">
      <root>
        <mxCell id="0" />
        <mxCell id="1" parent="0" />
        <mxCell id="gBIhyepfAZc9J1WDrtBA-1" value="" style="rounded=0;whiteSpace=wrap;html=1;" vertex="1" parent="1">
          <mxGeometry width="1580" height="90" as="geometry" />
        </mxCell>
        <mxCell id="gBIhyepfAZc9J1WDrtBA-2" value="" style="rounded=0;whiteSpace=wrap;html=1;" vertex="1" parent="1">
          <mxGeometry y="90" width="1580" height="870" as="geometry" />
        </mxCell>
        <mxCell id="gBIhyepfAZc9J1WDrtBA-3" value="" style="rounded=0;whiteSpace=wrap;html=1;" vertex="1" parent="1">
          <mxGeometry y="960" width="1580" height="209" as="geometry" />
        </mxCell>
        <mxCell id="gBIhyepfAZc9J1WDrtBA-4" value="LOGO" style="rounded=0;whiteSpace=wrap;html=1;" vertex="1" parent="1">
          <mxGeometry x="20" y="15" width="120" height="60" as="geometry" />
        </mxCell>
        <mxCell id="gBIhyepfAZc9J1WDrtBA-5" value="MENU" style="rounded=0;whiteSpace=wrap;html=1;" vertex="1" parent="1">
          <mxGeometry x="390" y="15" width="910" height="60" as="geometry" />
        </mxCell>
        <mxCell id="gBIhyepfAZc9J1WDrtBA-6" value="SECCIÓN 1" style="rounded=0;whiteSpace=wrap;html=1;" vertex="1" parent="1">
          <mxGeometry x="90" y="980" width="170" height="160" as="geometry" />
        </mxCell>
        <mxCell id="gBIhyepfAZc9J1WDrtBA-7" value="SECCIÓN 2" style="rounded=0;whiteSpace=wrap;html=1;" vertex="1" parent="1">
          <mxGeometry x="330" y="980" width="175" height="160" as="geometry" />
        </mxCell>
        <mxCell id="gBIhyepfAZc9J1WDrtBA-8" value="INFO EXTRA" style="rounded=0;whiteSpace=wrap;html=1;" vertex="1" parent="1">
          <mxGeometry x="1250" y="1060" width="270" height="70" as="geometry" />
        </mxCell>
        <mxCell id="gBIhyepfAZc9J1WDrtBA-9" value="NOMBRE DE EMPRESA" style="rounded=0;whiteSpace=wrap;html=1;" vertex="1" parent="1">
          <mxGeometry x="170" y="15" width="180" height="60" as="geometry" />
        </mxCell>
        <mxCell id="gBIhyepfAZc9J1WDrtBA-10" value="EMAIL" style="rounded=0;whiteSpace=wrap;html=1;" vertex="1" parent="1">
          <mxGeometry x="637.5" y="350" width="335" height="70" as="geometry" />
        </mxCell>
        <mxCell id="gBIhyepfAZc9J1WDrtBA-11" value="CONTRASEÑA" style="rounded=0;whiteSpace=wrap;html=1;glass=0;" vertex="1" parent="1">
          <mxGeometry x="637.5" y="460" width="335" height="70" as="geometry" />
        </mxCell>
        <mxCell id="gBIhyepfAZc9J1WDrtBA-12" value="INICIAR SESIÓN" style="rounded=1;whiteSpace=wrap;html=1;" vertex="1" parent="1">
          <mxGeometry x="703.75" y="580" width="202.5" height="60" as="geometry" />
        </mxCell>
        <mxCell id="gBIhyepfAZc9J1WDrtBA-13" value="TÍTULO LOGIN EMPLEADOS" style="rounded=1;whiteSpace=wrap;html=1;" vertex="1" parent="1">
          <mxGeometry x="430" y="200" width="750" height="90" as="geometry" />
        </mxCell>
      </root>
    </mxGraphModel>
  </diagram>
</mxfile>
